# xmcd
#
# Track frame offsets:
#	150
#	19825
#	43481
#	63704
#	89511
#	107767
#	129325
#	159799
#	174256
#	196697
#
# Disc length: 2881 seconds
#
# Revision: 0
# Processed by: cddbd v1.5.2PL0 Copyright (c) Steve Scherf et al.
# Submitted via: EasyCDDAExtractor 16.0.9.1
#
DISCID=7e0b3f0a
DTITLE=Thu Hiền and Thanh Hoa - BNTCD: Hai Chị Em
DYEAR=2010
DGENRE=Country
TTITLE0=Thu Hiền and Thanh Hoa - Cô Gái Mở Đường (Xuân Giao)
TTITLE1=Thu Hiền - Một Khúc Tâm Tình Của Người Hà Tĩnh (Nguyễn Văn Tý)
TTITLE2=Thanh Hoa - Tình Yêu Trên Dòng Quan Họ (Nhạc: Phan Lạc Hoa, Thơ: Đỗ Tr
TTITLE2=ung Quân)
TTITLE3=Thu Hiền - Quảng Bình Quê Ta Ơi! (Hoàng Vân)
TTITLE4=Thu Hiền and Thanh Hoa - Xe Tăng Qua Miền Quan Họ (An Thuyên)
TTITLE5=Thanh Hoa - Mùa Xuân Làng Lúa Làng Hoa (Ngọc Khuê)
TTITLE6=Thu Hiền - Dáng Đứng Bến Tre (Nguyễn Văn Tý)
TTITLE7=Thanh Hoa - Tàu Anh Qua Núi (Phan Lạc Hoa)
TTITLE8=Thu Hiền - Câu Hò Bên Bờ Hiền Lương (Nhạc: Hoàng Hiệp, Lời: Đăng Giao)
TTITLE9=Thu Hiền and Thanh Hoa - Hai Chị Em (Hoàng Vân)
EXTD=
EXTT0=
EXTT1=
EXTT2=
EXTT3=
EXTT4=
EXTT5=
EXTT6=
EXTT7=
EXTT8=
EXTT9=
PLAYORDER=
